<svg width="149" height="51" viewBox="0 0 149 51" fill="none" xmlns="http://www.w3.org/2000/svg">
<path d="M69.176 23.704C69.176 23.992 69.224 24.28 69.32 24.544L69.68 25.624L69.344 25.744L68.984 24.688C68.888 24.4 68.744 24.136 68.576 23.896L59.528 12.064H56.888V28.024H59.528V16.384C59.528 16.096 59.48 15.808 59.408 15.544L59.024 14.44L59.36 14.32L59.72 15.4C59.816 15.688 59.96 15.928 60.128 16.168L69.176 28.024H71.84V12.064H69.176V23.704ZM85.2618 14.392V12.064H73.6458V28.024H76.2858V20.704H82.2858V18.376H76.2858V14.392H85.2618ZM84.9414 12.064V14.392H90.5814V28.024H93.2454V14.392H98.8854V12.064H84.9414ZM101.942 28V25.672H99.302V28H101.942ZM114.451 16.048V16.216C114.451 16.6 114.547 16.96 114.691 17.296L115.291 18.64L114.955 18.784L114.499 17.728C114.211 17.128 113.731 16.624 113.107 16.36C112.171 15.952 111.091 15.712 109.963 15.712C106.027 15.712 102.835 18.544 102.835 22.048C102.835 25.528 105.355 28.36 108.475 28.36C111.595 28.36 114.115 25.816 114.115 22.696H111.475C111.475 24.544 110.131 26.032 108.475 26.032C106.819 26.032 105.475 24.232 105.475 22.048C105.475 19.84 107.491 18.04 109.963 18.04C112.459 18.04 114.451 19.84 114.451 22.048V26.032C114.451 28.24 112.459 30.016 109.963 30.016H105.811V32.344H109.963C113.923 32.344 117.115 29.512 117.115 26.032V16.048H114.451ZM121.378 28.024V16.048H118.738V28.024H121.378ZM121.378 15.376V12.736H118.738V15.376H121.378ZM125.955 15.448V15.064C125.955 14.512 126.555 14.056 127.275 14.056H128.955V11.728H127.275C125.091 11.728 123.291 13.216 123.291 15.064V16.048H122.643V18.04H123.291V28.024H125.955V18.04H128.619V16.048H126.579C126.339 16.048 126.123 16.144 125.955 16.312L125.427 16.84L125.163 16.6L125.691 16.072C125.859 15.904 125.955 15.664 125.955 15.448ZM133.625 26.032C132.905 26.032 132.305 25.576 132.305 25.024V18.664C132.305 18.424 132.209 18.208 132.041 18.04L131.513 17.512L131.777 17.248L132.305 17.8C132.473 17.944 132.689 18.04 132.929 18.04H134.969V16.048H132.305V12.064H129.641V16.048H128.993V18.04H129.641V25.024C129.641 26.872 131.441 28.36 133.625 28.36H135.305V26.032H133.625ZM146.011 21.808C144.931 21.136 143.467 21.04 141.811 20.704C140.179 20.392 138.811 20.104 138.811 19.384C138.811 18.64 140.155 18.04 141.811 18.04C143.467 18.04 144.787 18.64 144.787 19.384H147.451C147.451 17.368 144.931 15.712 141.811 15.712C138.691 15.712 136.147 17.368 136.147 19.384C136.147 20.32 136.699 21.16 137.587 21.808C138.619 22.576 140.155 22.696 141.811 23.032C143.467 23.368 145.123 23.704 145.123 24.52C145.123 25.36 143.635 26.032 141.811 26.032C139.963 26.032 138.475 25.36 138.475 24.52C138.475 24.472 138.499 24.424 138.499 24.376H135.835C135.835 24.424 135.835 24.472 135.835 24.52C135.835 26.632 138.499 28.36 141.811 28.36C145.123 28.36 147.787 26.632 147.787 24.52C147.787 23.464 147.115 22.504 146.011 21.808Z" fill="black"/>
<path d="M21 0L27.3937 12.444C27.871 13.3729 28.6271 14.129 29.556 14.6063L42 21L29.556 27.3937C28.6271 27.871 27.871 28.6271 27.3937 29.556L21 42L14.6063 29.556C14.129 28.6271 13.3729 27.871 12.444 27.3937L0 21L12.444 14.6063C13.3729 14.129 14.129 13.3729 14.6063 12.444L21 0Z" fill="#5FAC5D"/>
</svg>
