<?xml version="1.0" standalone="no"?>
<!DOCTYPE svg PUBLIC "-//W3C//DTD SVG 20010904//EN"
 "http://www.w3.org/TR/2001/REC-SVG-20010904/DTD/svg10.dtd">
<svg version="1.0" xmlns="http://www.w3.org/2000/svg"
 width="609.000000pt" height="609.000000pt" viewBox="0 0 609.000000 609.000000"
 preserveAspectRatio="xMidYMid meet">
<metadata>
Created by potrace 1.14, written by Peter Selinger 2001-2017
</metadata>
<g transform="translate(0.000000,609.000000) scale(0.100000,-0.100000)"
fill="#000000" stroke="none">
<path d="M2925 5857 c-65 -127 -141 -277 -170 -332 -29 -55 -102 -197 -163
-315 -233 -456 -307 -599 -367 -715 -34 -66 -92 -180 -129 -253 -37 -73 -77
-143 -89 -155 -12 -13 -65 -45 -117 -72 -126 -64 -623 -318 -980 -502 -85 -44
-254 -131 -375 -193 -444 -228 -534 -275 -532 -276 3 -2 289 -150 532 -274
110 -56 283 -145 385 -198 102 -52 264 -135 360 -185 696 -357 712 -365 730
-385 16 -18 19 -23 213 -402 69 -135 164 -319 210 -410 47 -91 127 -246 177
-345 51 -99 130 -253 176 -342 46 -90 123 -238 170 -330 48 -93 87 -169 88
-170 1 -2 61 113 274 527 52 102 132 257 177 345 45 88 131 255 190 370 318
622 384 747 398 762 14 14 73 45 372 198 127 65 298 153 380 195 211 109 753
387 1127 579 70 36 126 66 125 67 -2 2 -199 103 -542 279 -104 54 -269 138
-365 188 -181 93 -396 203 -750 385 -301 154 -333 172 -352 194 -10 11 -47 79
-84 151 -37 73 -95 186 -129 252 -34 66 -111 215 -170 330 -59 116 -147 287
-195 380 -48 94 -130 253 -183 355 -215 419 -270 525 -271 527 -1 1 -55 -102
-121 -230z"/>
</g>
</svg>
